<svg width="47" height="13" viewBox="0 0 47 13" fill="none" xmlns="http://www.w3.org/2000/svg">
<path id="Vector" d="M4.46061 4.99795C2.62213 4.56562 2.29537 4.26219 2.29537 3.6246C2.29537 3.02224 2.87006 2.61687 3.72573 2.61687C4.5547 2.61687 5.37604 2.92469 6.23807 3.55839C6.2635 3.57758 6.29655 3.58523 6.32834 3.58021C6.34433 3.57795 6.35968 3.57249 6.37345 3.56416C6.38723 3.55584 6.39913 3.54483 6.40844 3.53181L7.30607 2.28397C7.32379 2.25923 7.33129 2.22876 7.32704 2.19876C7.32279 2.16876 7.30711 2.14148 7.28318 2.12248C6.25714 1.31085 5.10268 0.916264 3.75243 0.916264C1.76773 0.916264 0.380597 2.09101 0.380597 3.7718C0.380597 5.57422 1.57701 6.21244 3.64436 6.70508C5.40274 7.10468 5.70026 7.43946 5.70026 8.0378C5.70026 8.7011 5.10014 9.11362 4.13385 9.11362C3.06077 9.11362 2.18475 8.75627 1.20575 7.9212C1.18135 7.90084 1.14994 7.89052 1.11803 7.89236C1.08497 7.89487 1.05573 7.90991 1.03538 7.93373L0.0284148 9.11487C-0.0135423 9.16502 -0.00845918 9.23775 0.0398551 9.28038C1.17905 10.2835 2.58017 10.8126 4.09317 10.8126C6.23171 10.8126 7.61376 9.6603 7.61376 7.87606C7.61757 6.37055 6.70341 5.53673 4.46443 4.99958L4.46061 4.99795ZM12.4528 3.20995C11.5259 3.20995 10.7656 3.57006 10.1375 4.30795V3.4774C10.1377 3.44599 10.1252 3.41582 10.1028 3.39351C10.0803 3.3712 10.0499 3.35857 10.018 3.3584H8.37153C8.30541 3.3584 8.25202 3.41182 8.25202 3.4774V12.7059C8.25202 12.7711 8.30541 12.825 8.37153 12.825H10.018C10.0841 12.825 10.1375 12.7711 10.1375 12.7059V9.79321C10.7656 10.4866 11.5259 10.8264 12.4528 10.8264C14.1756 10.8264 15.92 9.51861 15.92 7.01854C15.9225 4.51797 14.1781 3.20982 12.4541 3.20982L12.4528 3.20995ZM14.0052 7.01854C14.0052 8.29108 13.2106 9.18007 12.0714 9.18007C10.9462 9.18007 10.0969 8.25096 10.0969 7.01854C10.0969 5.786 10.9462 4.85714 12.0714 4.85714C13.1915 4.85702 14.0052 5.76594 14.0052 7.01854ZM20.3891 3.20995C18.1704 3.20995 16.4324 4.89463 16.4324 7.04575C16.4324 9.1738 18.159 10.8402 20.3624 10.8402C22.5886 10.8402 24.3318 9.16126 24.3318 7.01854C24.3318 4.8831 22.6001 3.20995 20.3891 3.20995ZM20.3891 9.19261C19.2092 9.19261 18.3192 8.25723 18.3192 7.01792C18.3192 5.77296 19.1787 4.86955 20.3624 4.86955C21.5499 4.86955 22.445 5.80456 22.445 7.04513C22.445 8.28983 21.5804 9.19261 20.3891 9.19261ZM29.0691 3.3584H27.2573V1.53203C27.2574 1.51649 27.2544 1.50109 27.2484 1.4867C27.2424 1.47231 27.2336 1.45923 27.2225 1.44819C27.2114 1.43715 27.1982 1.42838 27.1837 1.42237C27.1692 1.41636 27.1536 1.41323 27.1378 1.41317H25.4913C25.4252 1.41317 25.3705 1.46658 25.3705 1.53203V3.3584H24.5797C24.5136 3.3584 24.4602 3.41182 24.4602 3.4774V4.87256C24.4602 4.93802 24.5136 4.99155 24.5797 4.99155H25.3705V8.60204C25.3705 10.0603 26.1067 10.8001 27.5599 10.8001C28.1499 10.8001 28.6394 10.6797 29.1009 10.4214C29.139 10.4013 29.1619 10.3612 29.1619 10.3186V8.98948C29.1619 8.94936 29.1403 8.91049 29.1047 8.88917C29.0874 8.87825 29.0674 8.87204 29.0469 8.87116C29.0264 8.87028 29.006 8.87476 28.9877 8.88416C28.6712 9.04089 28.3647 9.11362 28.0215 9.11362C27.4938 9.11362 27.2573 8.87664 27.2573 8.34751V4.99218H29.0691C29.1352 4.99218 29.1886 4.93877 29.1886 4.87319V3.47815C29.1892 3.46258 29.1865 3.44707 29.1808 3.43255C29.175 3.41803 29.1664 3.40481 29.1553 3.39369C29.1443 3.38256 29.1311 3.37377 29.1164 3.36783C29.1018 3.3619 29.0862 3.35894 29.0704 3.35916L29.0691 3.3584ZM35.3805 3.36555V3.14124C35.3805 2.48133 35.6373 2.18705 36.212 2.18705C36.5553 2.18705 36.8312 2.25426 37.1401 2.35582C37.1783 2.36761 37.2177 2.36171 37.2482 2.33927C37.2637 2.32825 37.2763 2.31374 37.2849 2.29694C37.2935 2.28014 37.2979 2.26155 37.2978 2.24272V0.874762C37.2981 0.849213 37.2899 0.824264 37.2746 0.803697C37.2592 0.783129 37.2374 0.768065 37.2126 0.760786C36.8871 0.665117 36.4701 0.566939 35.8446 0.566939C34.3252 0.566939 33.5204 1.41129 33.5204 3.00783V3.35138H32.7295C32.6634 3.35138 32.6088 3.4048 32.6088 3.47025V4.87256C32.6088 4.93802 32.6634 4.99155 32.7295 4.99155H33.5204V10.5593C33.5204 10.6258 33.5751 10.6784 33.6412 10.6784H35.2864C35.3538 10.6784 35.4072 10.6258 35.4072 10.5593V4.99193H36.9443L39.299 10.5593C39.032 11.1436 38.7688 11.2602 38.4103 11.2602C38.1204 11.2602 37.814 11.175 37.5025 11.0057C37.473 10.991 37.4389 10.9879 37.4071 10.9969C37.3754 11.0082 37.3487 11.0308 37.3359 11.0609L36.7778 12.2683C36.7511 12.326 36.774 12.3925 36.8299 12.4225C37.4122 12.7335 37.9373 12.8664 38.587 12.8664C39.8025 12.8664 40.4751 12.3072 41.0663 10.8051L43.9219 3.52805C43.9294 3.51006 43.9321 3.49052 43.9299 3.47122C43.9277 3.45192 43.9205 3.43348 43.9092 3.41759C43.8985 3.40168 43.8839 3.38864 43.8669 3.37963C43.8498 3.37062 43.8307 3.36591 43.8113 3.36593H42.0974C42.0453 3.36593 41.9995 3.39815 41.983 3.44567L40.2272 8.39014L38.3048 3.44241C38.2962 3.41999 38.2809 3.40067 38.2609 3.38701C38.2409 3.37336 38.2172 3.366 38.1929 3.36593L35.3805 3.36555ZM31.7213 3.3584H30.0748C30.0087 3.3584 29.954 3.41182 29.954 3.4774V10.5593C29.954 10.6258 30.0087 10.6784 30.0748 10.6784H31.7213C31.7874 10.6784 31.8421 10.6258 31.8421 10.5593V3.4779C31.8421 3.46225 31.839 3.44675 31.833 3.43229C31.8269 3.41783 31.818 3.4047 31.8068 3.39364C31.7956 3.38258 31.7822 3.37382 31.7676 3.36786C31.7529 3.3619 31.7372 3.35836 31.7213 3.3584ZM30.9076 0.133606C30.2553 0.133606 29.7264 0.654208 29.7264 1.29731C29.7264 1.45027 29.757 1.60174 29.8164 1.74306C29.8757 1.88437 29.9627 2.01278 30.0724 2.12093C30.1821 2.22908 30.3123 2.31487 30.4556 2.3734C30.5989 2.43192 30.7525 2.46204 30.9076 2.46202C31.5598 2.46202 32.0875 1.94079 32.0875 1.29731C32.0875 0.654333 31.5586 0.133606 30.9076 0.133606ZM45.3281 5.63554C44.6772 5.63554 44.1699 5.11957 44.1699 4.49302C44.1699 3.86647 44.6835 3.34461 45.3345 3.34461C45.9855 3.34461 46.4928 3.86045 46.4928 4.4865C46.4928 5.11305 45.9791 5.63554 45.3281 5.63554ZM45.3345 3.45821C44.7407 3.45821 44.2919 3.92339 44.2919 4.49302C44.2919 5.0624 44.7382 5.52131 45.3281 5.52131C45.9219 5.52131 46.3707 5.0565 46.3707 4.4865C46.3707 3.91712 45.9244 3.45821 45.3345 3.45821ZM45.5913 4.60399L45.9193 5.05638H45.6422L45.3472 4.64135H45.0942V5.05638H44.8628V3.85719H45.4044C45.6879 3.85719 45.8736 3.99975 45.8736 4.23974C45.8749 4.43635 45.7591 4.55647 45.5926 4.60399H45.5913ZM45.3955 4.06295H45.0942V4.44224H45.3955C45.5455 4.44224 45.6358 4.36964 45.6358 4.25241C45.6358 4.12903 45.5455 4.06295 45.3955 4.06295Z" fill="white"/>
</svg>
