<svg width="21" height="21" viewBox="0 0 21 21" fill="none" xmlns="http://www.w3.org/2000/svg">
<path id="Vector" d="M10.4999 0.000157503C4.70107 0.000157503 0 4.70114 0 10.5001C0 16.2992 4.70107 21 10.4999 21C16.2994 21 21 16.2993 21 10.5001C21 4.70146 16.2994 0.000630011 10.4998 0.000630011L10.4999 0V0.000157503ZM15.3152 15.1442C15.1271 15.4526 14.7235 15.5506 14.4149 15.3611C11.9497 13.8552 8.84617 13.5142 5.19121 14.3493C4.83904 14.4295 4.48797 14.2088 4.40765 13.8565C4.32701 13.5041 4.54688 13.1531 4.89999 13.0729C8.89972 12.1591 12.3305 12.5525 15.0983 14.2439C15.4068 14.4332 15.5047 14.8357 15.3152 15.1442ZM16.6004 12.2852C16.3633 12.6703 15.8593 12.7919 15.4744 12.555C12.652 10.8201 8.34988 10.3177 5.0115 11.3312C4.57854 11.4619 4.12131 11.218 3.98996 10.7858C3.85955 10.3528 4.10367 9.89653 4.53585 9.76485C8.3491 8.60784 13.0897 9.16823 16.3309 11.16C16.7158 11.3971 16.8374 11.9011 16.6005 12.2855V12.2854L16.6004 12.2852ZM16.7108 9.3081C13.3266 7.29805 7.74335 7.1133 4.51239 8.09391C3.99358 8.25125 3.44485 7.95846 3.28766 7.43948C3.13048 6.92036 3.42311 6.37209 3.94223 6.21443C7.65121 5.08844 13.8169 5.30595 17.7131 7.61904C18.1807 7.89609 18.3338 8.49869 18.0566 8.96474C17.7807 9.43142 17.1764 9.5853 16.7113 9.3081H16.7108Z" fill="#1ED760"/>
</svg>
